<svg xmlns="http://www.w3.org/2000/svg" viewBox="0 0 900 600" font-family="Segoe UI, Helvetica, Arial, sans-serif">
  <defs>
    <marker id="ar" viewBox="0 0 10 10" refX="8" refY="5" markerWidth="7" markerHeight="7" orient="auto-start-reverse">
      <path d="M2 1L8 5L2 9" fill="none" stroke="context-stroke" stroke-width="1.6"/>
    </marker>
  </defs>
  <rect x="0" y="0" width="900" height="600" fill="#ffffff"/>

  <text x="40" y="36" font-size="22" fill="#1e1e1e" font-weight="600">Isolated security lab (concept)</text>
  <text x="40" y="60" font-size="13" fill="#495057">Planning phase. Trust drops top to bottom; two controlled crossings through the firewall.</text>

  <!-- WAN -->
  <rect x="375" y="84" width="150" height="42" rx="8" fill="#ffffff" stroke="#868e96" stroke-width="1.5"/>
  <text x="450" y="110" font-size="14" fill="#1e1e1e" text-anchor="middle">Internet / WAN</text>
  <line x1="450" y1="126" x2="450" y2="148" stroke="#868e96" stroke-width="1.6" marker-end="url(#ar)"/>

  <!-- Gateway -->
  <rect x="320" y="150" width="260" height="56" rx="10" fill="#fff4e0" stroke="#f08c00" stroke-width="2"/>
  <rect x="336" y="164" width="28" height="28" rx="4" fill="#f1f3f5" stroke="#adb5bd" stroke-width="1.2" stroke-dasharray="4 3"/>
  <text x="376" y="175" font-size="15" fill="#1e1e1e">UniFi Gateway</text>
  <text x="376" y="194" font-size="11" fill="#495057">firewall + VLAN enforcement</text>
  <line x1="450" y1="206" x2="450" y2="230" stroke="#f08c00" stroke-width="1.6" marker-end="url(#ar)"/>

  <!-- Trusted zone -->
  <rect x="40" y="232" width="820" height="126" rx="12" fill="#eef4ff" stroke="#4a9eed" stroke-width="1"/>
  <text x="56" y="254" font-size="14" fill="#1c7ed6" font-weight="600">Trusted / MGMT VLAN</text>

  <g>
    <rect x="56" y="266" width="185" height="74" rx="8" fill="#ffffff" stroke="#868e96" stroke-width="1.3"/>
    <rect x="66" y="275" width="24" height="24" rx="4" fill="#f1f3f5" stroke="#adb5bd" stroke-width="1.1" stroke-dasharray="4 3"/>
    <text x="148" y="301" font-size="14" fill="#1e1e1e" text-anchor="middle">Kasm portal</text>
    <text x="148" y="321" font-size="11" fill="#495057" text-anchor="middle">the doorway</text>
  </g>
  <g>
    <rect x="257" y="266" width="185" height="74" rx="8" fill="#ffffff" stroke="#868e96" stroke-width="1.3"/>
    <rect x="267" y="275" width="24" height="24" rx="4" fill="#f1f3f5" stroke="#adb5bd" stroke-width="1.1" stroke-dasharray="4 3"/>
    <text x="349" y="301" font-size="14" fill="#1e1e1e" text-anchor="middle">Proxmox + UniFi</text>
    <text x="349" y="321" font-size="11" fill="#495057" text-anchor="middle">management</text>
  </g>
  <g>
    <rect x="458" y="266" width="185" height="74" rx="8" fill="#ffffff" stroke="#868e96" stroke-width="1.3"/>
    <rect x="468" y="275" width="24" height="24" rx="4" fill="#f1f3f5" stroke="#adb5bd" stroke-width="1.1" stroke-dasharray="4 3"/>
    <text x="550" y="301" font-size="14" fill="#1e1e1e" text-anchor="middle">NPM + Netbird/WG</text>
    <text x="550" y="321" font-size="11" fill="#495057" text-anchor="middle">proxy + VPN in</text>
  </g>
  <g>
    <rect x="659" y="266" width="185" height="74" rx="8" fill="#ffffff" stroke="#868e96" stroke-width="1.3"/>
    <text x="751" y="301" font-size="14" fill="#1e1e1e" text-anchor="middle">Your workstation</text>
    <text x="751" y="321" font-size="11" fill="#495057" text-anchor="middle">browser only</text>
  </g>

  <!-- Firewall bar -->
  <rect x="40" y="372" width="820" height="44" rx="10" fill="#fff4e0" stroke="#f08c00" stroke-width="1.5"/>
  <text x="450" y="399" font-size="13" fill="#e8590c" text-anchor="middle" font-weight="600">Firewall: default deny between zones. LAB egress = DROP.</text>
  <text x="52" y="402" font-size="11" fill="#2f9e44">stream in</text>
  <text x="848" y="402" font-size="11" fill="#0ca678" text-anchor="end">artifacts out</text>

  <!-- Lab zone -->
  <rect x="40" y="430" width="820" height="132" rx="12" fill="#fff0f0" stroke="#e03131" stroke-width="1"/>
  <text x="56" y="452" font-size="14" fill="#e03131" font-weight="600">Lab / Quarantine VLAN (no internet)</text>

  <g>
    <rect x="56" y="464" width="185" height="76" rx="8" fill="#ffffff" stroke="#868e96" stroke-width="1.3"/>
    <rect x="66" y="473" width="24" height="24" rx="4" fill="#f1f3f5" stroke="#adb5bd" stroke-width="1.1" stroke-dasharray="4 3"/>
    <text x="148" y="500" font-size="14" fill="#1e1e1e" text-anchor="middle">Kali attacker</text>
    <text x="148" y="520" font-size="11" fill="#495057" text-anchor="middle">streamed via Kasm</text>
  </g>
  <g>
    <rect x="257" y="464" width="185" height="76" rx="8" fill="#ffffff" stroke="#868e96" stroke-width="1.3"/>
    <rect x="267" y="473" width="24" height="24" rx="4" fill="#f1f3f5" stroke="#adb5bd" stroke-width="1.1" stroke-dasharray="4 3"/>
    <text x="349" y="500" font-size="14" fill="#1e1e1e" text-anchor="middle">Victim VM</text>
    <text x="349" y="520" font-size="11" fill="#495057" text-anchor="middle">snapshot first</text>
  </g>
  <g>
    <rect x="458" y="464" width="185" height="76" rx="8" fill="#ffffff" stroke="#868e96" stroke-width="1.3"/>
    <rect x="468" y="473" width="24" height="24" rx="4" fill="#f1f3f5" stroke="#adb5bd" stroke-width="1.1" stroke-dasharray="4 3"/>
    <text x="550" y="500" font-size="14" fill="#1e1e1e" text-anchor="middle">INetSim</text>
    <text x="550" y="520" font-size="11" fill="#495057" text-anchor="middle">fake internet</text>
  </g>
  <g>
    <rect x="659" y="464" width="185" height="76" rx="8" fill="#ffffff" stroke="#868e96" stroke-width="1.3"/>
    <text x="751" y="500" font-size="14" fill="#1e1e1e" text-anchor="middle">Transfer host</text>
    <text x="751" y="520" font-size="11" fill="#495057" text-anchor="middle">pull-only</text>
  </g>

  <!-- crossings -->
  <line x1="148" y1="340" x2="148" y2="462" stroke="#2f9e44" stroke-width="2.4" marker-end="url(#ar)"/>
  <line x1="751" y1="464" x2="751" y2="342" stroke="#0ca678" stroke-width="2.4" stroke-dasharray="7 4" marker-end="url(#ar)"/>

  <!-- legend -->
  <rect x="56" y="574" width="16" height="16" rx="3" fill="#f1f3f5" stroke="#adb5bd" stroke-width="1.1" stroke-dasharray="4 3"/>
  <text x="80" y="586" font-size="11" fill="#495057">dashed square = product logo, dropped in from the Excalidraw source later</text>
</svg>
